<svg width="32" height="32" viewBox="0 0 32 32" fill="none" xmlns="http://www.w3.org/2000/svg">
<g id="&#208;&#154;&#209;&#128;&#208;&#181;&#209;&#129;&#209;&#130;&#208;&#184;&#208;&#186;">
<g id="Icon">
<path d="M7.05703 7.05752C7.57773 6.53682 8.42195 6.53682 8.94265 7.05752L15.9998 14.1147L23.057 7.05752C23.5777 6.53682 24.4219 6.53682 24.9426 7.05752C25.4633 7.57822 25.4633 8.42244 24.9426 8.94313L17.8855 16.0003L24.9426 23.0575C25.4633 23.5782 25.4633 24.4224 24.9426 24.9431C24.4219 25.4638 23.5777 25.4638 23.057 24.9431L15.9998 17.8859L8.94265 24.9431C8.42195 25.4638 7.57773 25.4638 7.05703 24.9431C6.53633 24.4224 6.53633 23.5782 7.05703 23.0575L14.1142 16.0003L7.05703 8.94313C6.53633 8.42244 6.53633 7.57822 7.05703 7.05752Z" fill="#939393"/>
</g>
</g>
</svg>
