<svg width="12" height="12" viewBox="0 0 12 12" fill="none" xmlns="http://www.w3.org/2000/svg">
<g id="&#208;&#154;&#208;&#190;&#209;&#128;&#208;&#183;&#208;&#184;&#208;&#189;&#208;&#176; ">
<g id="Icon">
<path d="M3.5 2C3.5 1.44772 3.94772 1 4.5 1H7.5C8.05228 1 8.5 1.44772 8.5 2V3H9.49484C9.49793 2.99997 9.50103 2.99997 9.50413 3H10.5C10.7761 3 11 3.22386 11 3.5C11 3.77614 10.7761 4 10.5 4H9.96556L9.5319 10.0712C9.49452 10.5946 9.05908 11 8.53444 11H3.46556C2.94092 11 2.50548 10.5946 2.4681 10.0712L2.03444 4H1.5C1.22386 4 1 3.77614 1 3.5C1 3.22386 1.22386 3 1.5 3H2.49587C2.49897 2.99997 2.50207 2.99997 2.50516 3H3.5V2ZM4.5 3H7.5V2H4.5V3ZM3.03699 4L3.46556 10H8.53444L8.96301 4H3.03699Z" fill="#2F80ED"/>
</g>
</g>
</svg>
