<svg width="16" height="16" viewBox="0 0 16 16" fill="none" xmlns="http://www.w3.org/2000/svg">
<g id="&#208;&#152;&#208;&#186;&#208;&#190;&#208;&#189;&#208;&#186;&#208;&#176; !">
<g id="Vector">
<path d="M8.0026 14.6654C4.32071 14.6654 1.33594 11.6806 1.33594 7.9987C1.33594 4.3168 4.32071 1.33203 8.0026 1.33203C11.6845 1.33203 14.6693 4.3168 14.6693 7.9987C14.6652 11.6789 11.6828 14.6613 8.0026 14.6654ZM8.0026 9.9987C7.63441 9.9987 7.33594 10.2972 7.33594 10.6654C7.33594 11.0336 7.63441 11.332 8.0026 11.332C8.37079 11.332 8.66927 11.0336 8.66927 10.6654C8.66927 10.2972 8.37079 9.9987 8.0026 9.9987ZM8.0026 4.66536C7.63441 4.66536 7.33594 4.96384 7.33594 5.33203V7.9987C7.33594 8.36689 7.63441 8.66536 8.0026 8.66536C8.37079 8.66536 8.66927 8.36689 8.66927 7.9987V5.33203C8.66927 4.96384 8.37079 4.66536 8.0026 4.66536Z" fill="#EB5757"/>
</g>
</g>
</svg>
