<svg width="16" height="16" viewBox="0 0 16 16" fill="none" xmlns="http://www.w3.org/2000/svg">
<g id="&#208;&#155;&#208;&#190;&#208;&#176;&#208;&#180;&#208;&#181;&#209;&#128;">
<g id="Icon">
<path d="M9.89812 3.58881C9.6139 3.46655 9.4095 3.19824 9.4095 2.88884C9.4095 2.43486 9.83479 2.09867 10.2572 2.26501C11.8473 2.89123 13.1093 4.15373 13.7353 5.74613C13.9015 6.16889 13.565 6.59435 13.1107 6.59435C12.8015 6.59435 12.5332 6.39035 12.411 6.10626C11.9247 4.97581 11.0254 4.07372 9.89812 3.58881ZM3.58881 6.1056C3.46657 6.38991 3.19819 6.59435 2.88871 6.59435C2.43474 6.59435 2.09846 6.16916 2.26451 5.74664C2.89056 4.15375 4.1533 2.8909 5.74613 2.26472C6.16889 2.09852 6.59435 2.435 6.59435 2.88926C6.59435 3.19851 6.39034 3.46684 6.1063 3.58915C4.97583 4.07597 4.07373 4.97772 3.58881 6.1056ZM6.10761 12.4153C6.3909 12.5372 6.59435 12.8048 6.59435 13.1132C6.59435 13.5662 6.17007 13.9017 5.74839 13.7362C4.15492 13.1105 2.89153 11.8481 2.26501 10.2572C2.09867 9.83479 2.43486 9.4095 2.88884 9.4095C3.19824 9.4095 3.46656 9.61389 3.58876 9.89813C4.07385 11.0265 4.97649 11.9286 6.10761 12.4153ZM12.4112 9.89814C12.5334 9.61389 12.8018 9.4095 13.1112 9.4095C13.5651 9.4095 13.9013 9.83478 13.735 10.2572C13.1089 11.847 11.847 13.1089 10.2572 13.735C9.83478 13.9013 9.4095 13.5651 9.4095 13.1112C9.4095 12.8018 9.61389 12.5334 9.89814 12.4112C11.0255 11.9266 11.9266 11.0255 12.4112 9.89814Z" fill="#545454"/>
</g>
</g>
</svg>
