<svg width="42" height="32" viewBox="0 0 42 32" fill="none" xmlns="http://www.w3.org/2000/svg">
<g id="&#208;&#155;&#208;&#190;&#208;&#179;&#208;&#190;&#209;&#130;&#208;&#184;&#208;&#191;">
<g id="Vector">
<path d="M32.7316 22.8797C32.2837 22.3534 31.3879 21.8647 30.1188 21.4887C27.4313 20.6617 24.5199 19.6466 24.5199 17.8045C24.5199 17.5038 24.5199 17.1278 24.5199 17.0526V17.015C24.5199 16.1128 24.7812 15.5113 24.9305 15.2857C25.0051 15.1729 25.0425 15.1353 25.0425 15.0977C25.901 14.8346 26.2742 13.6692 26.1622 12.9549C26.1249 12.6165 25.9756 12.4286 25.8263 12.3534C25.8263 12.1278 25.901 11.7895 25.901 11.5263C25.9383 11.188 26.0129 10.812 26.0129 10.4737C26.0129 10.4737 26.0129 10.2481 26.0129 10.1729C25.9756 9.49624 25.8263 8.89474 25.4904 8.40601C24.7065 6.90226 23.2135 6 21.5338 6C19.8541 6 18.3611 6.93985 17.5772 8.40601C17.2786 8.93233 17.092 9.53383 17.0547 10.1729C17.0547 10.2481 17.0547 10.4737 17.0547 10.5113C17.0547 10.8496 17.1293 11.188 17.1666 11.5639C17.204 11.8271 17.2413 12.1654 17.2413 12.391C17.092 12.5038 16.9427 12.6917 16.9053 12.9925C16.7934 13.7068 17.1666 14.8722 18.0251 15.1353C18.0251 15.1353 18.0625 15.2105 18.1371 15.2857C18.2864 15.5489 18.5477 16.1128 18.5477 17.015V17.0902C18.5477 17.1654 18.5477 17.5038 18.5477 17.8421C18.5477 19.6842 15.6736 20.6993 12.9488 21.5263C11.6424 21.9023 10.7838 22.391 10.3359 22.9173C10 23.3308 10 23.6692 10 23.8196V25.812C10 25.8872 10.0373 26 10.224 26H32.8063C32.9929 26 32.9929 25.812 32.9929 25.812V23.8198C32.9929 23.6193 33.0676 23.2556 32.7316 22.8797Z" fill="#E0E0E0"/>
<path d="M32.3508 23.2038L32.3509 23.2038C31.9986 22.7898 31.2177 22.3357 29.9768 21.9681L29.9717 21.9666L29.9718 21.9666C28.633 21.5546 27.1853 21.0809 26.0699 20.465C24.983 19.8648 24.0199 19.0228 24.0199 17.8045V17.8027V17.801V17.7992V17.7975V17.7957V17.7939V17.7921V17.7904V17.7886V17.7868V17.785V17.7832V17.7815V17.7797V17.7779V17.7761V17.7743V17.7725V17.7707V17.7689V17.7672V17.7654V17.7636V17.7618V17.76V17.7582V17.7564V17.7546V17.7528V17.7509V17.7491V17.7473V17.7455V17.7437V17.7419V17.7401V17.7383V17.7365V17.7346V17.7328V17.731V17.7292V17.7274V17.7255V17.7237V17.7219V17.7201V17.7183V17.7164V17.7146V17.7128V17.7109V17.7091V17.7073V17.7055V17.7036V17.7018V17.7V17.6981V17.6963V17.6945V17.6926V17.6908V17.6889V17.6871V17.6853V17.6834V17.6816V17.6797V17.6779V17.6761V17.6742V17.6724V17.6705V17.6687V17.6668V17.665V17.6632V17.6613V17.6595V17.6576V17.6558V17.6539V17.6521V17.6502V17.6484V17.6465V17.6447V17.6428V17.641V17.6391V17.6373V17.6354V17.6336V17.6317V17.6299V17.628V17.6262V17.6243V17.6225V17.6206V17.6188V17.6169V17.6151V17.6132V17.6114V17.6095V17.6077V17.6058V17.604V17.6021V17.6003V17.5984V17.5966V17.5947V17.5929V17.591V17.5892V17.5873V17.5855V17.5836V17.5818V17.58V17.5781V17.5763V17.5744V17.5726V17.5707V17.5689V17.567V17.5652V17.5633V17.5615V17.5597V17.5578V17.556V17.5541V17.5523V17.5505V17.5486V17.5468V17.5449V17.5431V17.5413V17.5394V17.5376V17.5358V17.5339V17.5321V17.5303V17.5284V17.5266V17.5248V17.523V17.5211V17.5193V17.5175V17.5156V17.5138V17.512V17.5102V17.5084V17.5065V17.5047V17.5029V17.5011V17.4993V17.4975V17.4956V17.4938V17.492V17.4902V17.4884V17.4866V17.4848V17.483V17.4812V17.4794V17.4776V17.4758V17.474V17.4722V17.4704V17.4686V17.4668V17.465V17.4632V17.4614V17.4596V17.4578V17.4561V17.4543V17.4525V17.4507V17.4489V17.4472V17.4454V17.4436V17.4418V17.4401V17.4383V17.4365V17.4348V17.433V17.4312V17.4295V17.4277V17.426V17.4242V17.4224V17.4207V17.4189V17.4172V17.4154V17.4137V17.412V17.4102V17.4085V17.4067V17.405V17.4033V17.4015V17.3998V17.3981V17.3964V17.3946V17.3929V17.3912V17.3895V17.3878V17.3861V17.3843V17.3826V17.3809V17.3792V17.3775V17.3758V17.3741V17.3724V17.3707V17.369V17.3674V17.3657V17.364V17.3623V17.3606V17.359V17.3573V17.3556V17.3539V17.3523V17.3506V17.349V17.3473V17.3456V17.344V17.3423V17.3407V17.339V17.3374V17.3358V17.3341V17.3325V17.3309V17.3292V17.3276V17.326V17.3244V17.3227V17.3211V17.3195V17.3179V17.3163V17.3147V17.3131V17.3115V17.3099V17.3083V17.3067V17.3051V17.3035V17.302V17.3004V17.2988V17.2972V17.2957V17.2941V17.2925V17.291V17.2894V17.2879V17.2863V17.2848V17.2832V17.2817V17.2801V17.2786V17.2771V17.2756V17.274V17.2725V17.271V17.2695V17.268V17.2665V17.265V17.2635V17.262V17.2605V17.259V17.2575V17.256V17.2545V17.2531V17.2516V17.2501V17.2486V17.2472V17.2457V17.2443V17.2428V17.2414V17.2399V17.2385V17.2371V17.2356V17.2342V17.2328V17.2314V17.2299V17.2285V17.2271V17.2257V17.2243V17.2229V17.2215V17.2201V17.2187V17.2174V17.216V17.2146V17.2132V17.2119V17.2105V17.2091V17.2078V17.2064V17.2051V17.2038V17.2024V17.2011V17.1998V17.1984V17.1971V17.1958V17.1945V17.1932V17.1919V17.1906V17.1893V17.188V17.1867V17.1854V17.1841V17.1829V17.1816V17.1803V17.1791V17.1778V17.1766V17.1753V17.1741V17.1728V17.1716V17.1704V17.1692V17.1679V17.1667V17.1655V17.1643V17.1631V17.1619V17.1607V17.1595V17.1584V17.1572V17.156V17.1548V17.1537V17.1525V17.1514V17.1502V17.1491V17.1479V17.1468V17.1457V17.1446V17.1434V17.1423V17.1412V17.1401V17.139V17.1379V17.1368V17.1357V17.1347V17.1336V17.1325V17.1315V17.1304V17.1294V17.1283V17.1273V17.1262V17.1252V17.1242V17.1231V17.1221V17.1211V17.1201V17.1191V17.1181V17.1171V17.1161V17.1152V17.1142V17.1132V17.1123V17.1113V17.1104V17.1094V17.1085V17.1075V17.1066V17.1057V17.1048V17.1039V17.1029V17.102V17.1012V17.1003V17.0994V17.0985V17.0976V17.0968V17.0959V17.095V17.0942V17.0933V17.0925V17.0917V17.0909V17.09V17.0892V17.0884V17.0876V17.0868V17.086V17.0852V17.0845V17.0837V17.0829V17.0822V17.0814V17.0807V17.0799V17.0792V17.0784V17.0777V17.077V17.0763V17.0756V17.0749V17.0742V17.0735V17.0728V17.0721V17.0715V17.0708V17.0702V17.0695V17.0689V17.0682V17.0676V17.067V17.0664V17.0658V17.0652V17.0646V17.064V17.0634V17.0628V17.0622V17.0617V17.0611V17.0606V17.06V17.0595V17.0589V17.0584V17.0579V17.0574V17.0569V17.0564V17.0559V17.0554V17.0549V17.0545V17.054V17.0535V17.0531V17.0526V17.015C24.0199 16.0229 24.3056 15.3238 24.5135 15.0097C24.5239 14.9941 24.5335 14.9798 24.5425 14.9668V14.728L24.8959 14.6197C25.1401 14.5449 25.3588 14.3259 25.5105 13.9898C25.6623 13.6536 25.7074 13.2818 25.6683 13.0323L25.6665 13.0211L25.6653 13.0097C25.6486 12.8588 25.6051 12.807 25.5939 12.7962L25.3263 12.6614V12.3534C25.3263 12.2115 25.3475 12.047 25.3641 11.918C25.3653 11.9086 25.3665 11.8994 25.3677 11.8904C25.3872 11.7384 25.401 11.6204 25.401 11.5263V11.4988L25.404 11.4715C25.4196 11.3296 25.4377 11.2017 25.4546 11.0824C25.4858 10.8622 25.5129 10.6709 25.5129 10.4737V10.4737V10.4737V10.4736V10.4736V10.4736V10.4736V10.4735V10.4735V10.4734V10.4734V10.4733V10.4733V10.4732V10.4731V10.473V10.473V10.4729V10.4728V10.4727V10.4726V10.4725V10.4724V10.4722V10.4721V10.472V10.4719V10.4717V10.4716V10.4714V10.4713V10.4711V10.471V10.4708V10.4706V10.4705V10.4703V10.4701V10.4699V10.4697V10.4695V10.4693V10.4691V10.4689V10.4687V10.4685V10.4683V10.468V10.4678V10.4676V10.4673V10.4671V10.4669V10.4666V10.4663V10.4661V10.4658V10.4655V10.4653V10.465V10.4647V10.4644V10.4641V10.4638V10.4635V10.4632V10.4629V10.4626V10.4623V10.462V10.4617V10.4613V10.461V10.4607V10.4603V10.46V10.4597V10.4593V10.459V10.4586V10.4582V10.4579V10.4575V10.4571V10.4568V10.4564V10.456V10.4556V10.4552V10.4548V10.4544V10.454V10.4536V10.4532V10.4528V10.4524V10.452V10.4515V10.4511V10.4507V10.4502V10.4498V10.4494V10.4489V10.4485V10.448V10.4476V10.4471V10.4466V10.4462V10.4457V10.4452V10.4448V10.4443V10.4438V10.4433V10.4428V10.4423V10.4419V10.4414V10.4409V10.4403V10.4398V10.4393V10.4388V10.4383V10.4378V10.4373V10.4367V10.4362V10.4357V10.4351V10.4346V10.4341V10.4335V10.433V10.4324V10.4319V10.4313V10.4308V10.4302V10.4297V10.4291V10.4285V10.428V10.4274V10.4268V10.4262V10.4256V10.4251V10.4245V10.4239V10.4233V10.4227V10.4221V10.4215V10.4209V10.4203V10.4197V10.4191V10.4185V10.4178V10.4172V10.4166V10.416V10.4154V10.4147V10.4141V10.4135V10.4128V10.4122V10.4116V10.4109V10.4103V10.4096V10.409V10.4083V10.4077V10.407V10.4064V10.4057V10.4051V10.4044V10.4037V10.4031V10.4024V10.4017V10.4011V10.4004V10.3997V10.399V10.3983V10.3977V10.397V10.3963V10.3956V10.3949V10.3942V10.3935V10.3928V10.3921V10.3914V10.3907V10.39V10.3893V10.3886V10.3879V10.3872V10.3865V10.3858V10.3851V10.3844V10.3836V10.3829V10.3822V10.3815V10.3808V10.38V10.3793V10.3786V10.3778V10.3771V10.3764V10.3756V10.3749V10.3742V10.3734V10.3727V10.372V10.3712V10.3705V10.3697V10.369V10.3682V10.3675V10.3667V10.366V10.3652V10.3645V10.3637V10.363V10.3622V10.3614V10.3607V10.3599V10.3592V10.3584V10.3576V10.3569V10.3561V10.3553V10.3546V10.3538V10.353V10.3523V10.3515V10.3507V10.35V10.3492V10.3484V10.3476V10.3469V10.3461V10.3453V10.3445V10.3438V10.343V10.3422V10.3414V10.3406V10.3399V10.3391V10.3383V10.3375V10.3367V10.3359V10.3351V10.3344V10.3336V10.3328V10.332V10.3312V10.3304V10.3296V10.3289V10.3281V10.3273V10.3265V10.3257V10.3249V10.3241V10.3233V10.3225V10.3217V10.3209V10.3202V10.3194V10.3186V10.3178V10.317V10.3162V10.3154V10.3146V10.3138V10.313V10.3122V10.3114V10.3106V10.3099V10.3091V10.3083V10.3075V10.3067V10.3059V10.3051V10.3043V10.3035V10.3027V10.3019V10.3011V10.3003V10.2996V10.2988V10.298V10.2972V10.2964V10.2956V10.2948V10.294V10.2932V10.2924V10.2917V10.2909V10.2901V10.2893V10.2885V10.2877V10.2869V10.2862V10.2854V10.2846V10.2838V10.283V10.2822V10.2815V10.2807V10.2799V10.2791V10.2783V10.2776V10.2768V10.276V10.2752V10.2745V10.2737V10.2729V10.2721V10.2714V10.2706V10.2698V10.2691V10.2683V10.2675V10.2667V10.266V10.2652V10.2645V10.2637V10.2629V10.2622V10.2614V10.2607V10.2599V10.2591V10.2584V10.2576V10.2569V10.2561V10.2554V10.2546V10.2539V10.2531V10.2524V10.2516V10.2509V10.2502V10.2494V10.2487V10.2479V10.2472V10.2465V10.2457V10.245V10.2443V10.2435V10.2428V10.2421V10.2414V10.2406V10.2399V10.2392V10.2385V10.2378V10.2371V10.2363V10.2356V10.2349V10.2342V10.2335V10.2328V10.2321V10.2314V10.2307V10.23V10.2293V10.2286V10.2279V10.2272V10.2265V10.2258V10.2252V10.2245V10.2238V10.2231V10.2224V10.2218V10.2211V10.2204V10.2198V10.2191V10.2184V10.2178V10.2171V10.2164V10.2158V10.2151V10.2145V10.2138V10.2132V10.2125V10.2119V10.2112V10.2106V10.21V10.2093V10.2087V10.2081V10.2074V10.2068V10.2062V10.2056V10.205V10.2043V10.2037V10.2031V10.2025V10.2019V10.2013V10.2007V10.2001V10.1995V10.1989V10.1983V10.1977V10.1971V10.1966V10.196V10.1954V10.1948V10.1943V10.1937V10.1931V10.1926V10.192V10.1914V10.1909V10.1903V10.1898V10.1892V10.1887V10.1882V10.1876V10.1871V10.187C25.4773 9.56874 25.3418 9.07255 25.0783 8.68924L25.0611 8.66414L25.047 8.63713C24.3491 7.29831 23.0268 6.5 21.5338 6.5C20.0468 6.5 18.719 7.33087 18.0182 8.64175L18.0122 8.65283L18.0121 8.65275C17.7522 9.11079 17.5893 9.63317 17.5547 10.188V10.1882V10.1887V10.1893V10.1898V10.1904V10.1909V10.1915V10.192V10.1926V10.1931V10.1937V10.1943V10.1949V10.1954V10.196V10.1966V10.1972V10.1978V10.1984V10.1989V10.1995V10.2001V10.2007V10.2013V10.2019V10.2026V10.2032V10.2038V10.2044V10.205V10.2056V10.2063V10.2069V10.2075V10.2081V10.2088V10.2094V10.2101V10.2107V10.2113V10.212V10.2126V10.2133V10.2139V10.2146V10.2152V10.2159V10.2166V10.2172V10.2179V10.2186V10.2192V10.2199V10.2206V10.2213V10.2219V10.2226V10.2233V10.224V10.2247V10.2254V10.2261V10.2268V10.2275V10.2282V10.2289V10.2296V10.2303V10.231V10.2317V10.2324V10.2331V10.2338V10.2345V10.2352V10.236V10.2367V10.2374V10.2381V10.2389V10.2396V10.2403V10.2411V10.2418V10.2425V10.2433V10.244V10.2447V10.2455V10.2462V10.247V10.2477V10.2485V10.2492V10.25V10.2507V10.2515V10.2522V10.253V10.2537V10.2545V10.2553V10.256V10.2568V10.2576V10.2583V10.2591V10.2599V10.2606V10.2614V10.2622V10.263V10.2638V10.2645V10.2653V10.2661V10.2669V10.2677V10.2684V10.2692V10.27V10.2708V10.2716V10.2724V10.2732V10.274V10.2748V10.2756V10.2764V10.2772V10.2779V10.2787V10.2795V10.2803V10.2812V10.282V10.2828V10.2836V10.2844V10.2852V10.286V10.2868V10.2876V10.2884V10.2892V10.29V10.2908V10.2917V10.2925V10.2933V10.2941V10.2949V10.2957V10.2966V10.2974V10.2982V10.299V10.2998V10.3007V10.3015V10.3023V10.3031V10.3039V10.3048V10.3056V10.3064V10.3072V10.3081V10.3089V10.3097V10.3105V10.3114V10.3122V10.313V10.3138V10.3147V10.3155V10.3163V10.3172V10.318V10.3188V10.3197V10.3205V10.3213V10.3221V10.323V10.3238V10.3246V10.3255V10.3263V10.3271V10.328V10.3288V10.3296V10.3305V10.3313V10.3321V10.333V10.3338V10.3346V10.3355V10.3363V10.3371V10.338V10.3388V10.3396V10.3404V10.3413V10.3421V10.3429V10.3438V10.3446V10.3454V10.3463V10.3471V10.3479V10.3488V10.3496V10.3504V10.3512V10.3521V10.3529V10.3537V10.3546V10.3554V10.3562V10.357V10.3579V10.3587V10.3595V10.3603V10.3612V10.362V10.3628V10.3636V10.3644V10.3653V10.3661V10.3669V10.3677V10.3685V10.3694V10.3702V10.371V10.3718V10.3726V10.3734V10.3742V10.3751V10.3759V10.3767V10.3775V10.3783V10.3791V10.3799V10.3807V10.3815V10.3823V10.3831V10.3839V10.3847V10.3855V10.3863V10.3871V10.3879V10.3887V10.3895V10.3903V10.3911V10.3919V10.3927V10.3935V10.3943V10.3951V10.3959V10.3967V10.3974V10.3982V10.399V10.3998V10.4006V10.4013V10.4021V10.4029V10.4037V10.4044V10.4052V10.406V10.4068V10.4075V10.4083V10.4091V10.4098V10.4106V10.4113V10.4121V10.4129V10.4136V10.4144V10.4151V10.4159V10.4166V10.4174V10.4181V10.4189V10.4196V10.4204V10.4211V10.4218V10.4226V10.4233V10.424V10.4248V10.4255V10.4262V10.427V10.4277V10.4284V10.4291V10.4299V10.4306V10.4313V10.432V10.4327V10.4334V10.4341V10.4348V10.4355V10.4362V10.4369V10.4376V10.4383V10.439V10.4397V10.4404V10.4411V10.4418V10.4425V10.4432V10.4438V10.4445V10.4452V10.4459V10.4465V10.4472V10.4479V10.4485V10.4492V10.4499V10.4505V10.4512V10.4518V10.4525V10.4531V10.4538V10.4544V10.4551V10.4557V10.4563V10.457V10.4576V10.4582V10.4589V10.4595V10.4601V10.4607V10.4613V10.4619V10.4626V10.4632V10.4638V10.4644V10.465V10.4656V10.4662V10.4668V10.4674V10.4679V10.4685V10.4691V10.4697V10.4703V10.4708V10.4714V10.472V10.4725V10.4731V10.4737V10.4742V10.4748V10.4753V10.4759V10.4764V10.477V10.4775V10.478V10.4786V10.4791V10.4796V10.4801V10.4807V10.4812V10.4817V10.4822V10.4827V10.4832V10.4837V10.4842V10.4847V10.4852V10.4857V10.4862V10.4867V10.4871V10.4876V10.4881V10.4886V10.489V10.4895V10.49V10.4904V10.4909V10.4913V10.4918V10.4922V10.4926V10.4931V10.4935V10.4939V10.4944V10.4948V10.4952V10.4956V10.496V10.4964V10.4968V10.4972V10.4976V10.498V10.4984V10.4988V10.4992V10.4996V10.4999V10.5003V10.5007V10.501V10.5014V10.5018V10.5021V10.5025V10.5028V10.5031V10.5035V10.5038V10.5041V10.5045V10.5048V10.5051V10.5054V10.5057V10.506V10.5063V10.5066V10.5069V10.5072V10.5075V10.5078V10.5081V10.5083V10.5086V10.5089V10.5091V10.5094V10.5096V10.5099V10.5101V10.5104V10.5106V10.5108V10.5111V10.5113C17.5547 10.6459 17.5695 10.7881 17.5922 10.957C17.5978 10.9985 17.604 11.0425 17.6104 11.0885C17.6284 11.2167 17.6485 11.3599 17.6631 11.5039C17.7006 11.7697 17.7413 12.1314 17.7413 12.391V12.6399L17.5427 12.7899C17.5107 12.8141 17.481 12.8445 17.4573 12.8831C17.4344 12.9204 17.4115 12.9742 17.4015 13.0541L17.4006 13.062L17.3993 13.0699C17.3602 13.3194 17.4053 13.6912 17.557 14.0274C17.7087 14.3635 17.9275 14.5825 18.1717 14.6573L18.3773 14.7203L18.4684 14.9038C18.4689 14.9045 18.4694 14.9054 18.4701 14.9064C18.4753 14.9143 18.4831 14.9245 18.4919 14.9334L18.539 14.9809L18.572 15.039C18.7543 15.3604 19.0477 16.0086 19.0477 17.015V17.0902L32.3508 23.2038ZM32.3508 23.2038L32.3588 23.2129M32.3508 23.2038L32.3588 23.2129M32.3588 23.2129L32.7316 22.8797L32.3588 23.2129ZM19.0477 17.8401V17.8421V17.8401ZM19.0477 17.8401V17.8381M19.0477 17.8401V17.8381M19.0477 17.8381V17.8362M19.0477 17.8381V17.8362M19.0477 17.8362V17.8342M19.0477 17.8362V17.8342M19.0477 17.8342V17.8322M19.0477 17.8342V17.8322M19.0477 17.8322V17.8302M19.0477 17.8322V17.8302M19.0477 17.8302V17.8282M19.0477 17.8302V17.8282M19.0477 17.8282V17.8262M19.0477 17.8282V17.8262M19.0477 17.8262V17.8243M19.0477 17.8262V17.8243M19.0477 17.8243V17.8223M19.0477 17.8243V17.8223M19.0477 17.8223V17.8203M19.0477 17.8223V17.8203M19.0477 17.8203V17.8183M19.0477 17.8203V17.8183M19.0477 17.8183V17.8163M19.0477 17.8183V17.8163M19.0477 17.8163V17.8144M19.0477 17.8163V17.8144M19.0477 17.8144V17.8124M19.0477 17.8144V17.8124M19.0477 17.8124V17.8104M19.0477 17.8124V17.8104M19.0477 17.8104V17.8084M19.0477 17.8104V17.8084M19.0477 17.8084V17.8064M19.0477 17.8084V17.8064M19.0477 17.8064V17.8045M19.0477 17.8064V17.8045M19.0477 17.8045V17.8025M19.0477 17.8045V17.8025M19.0477 17.8025V17.8005M19.0477 17.8025V17.8005M19.0477 17.8005V17.7985M19.0477 17.8005V17.7985M19.0477 17.7985V17.7965M19.0477 17.7985V17.7965M19.0477 17.7965V17.7946M19.0477 17.7965V17.7946M19.0477 17.7946V17.7926M19.0477 17.7946V17.7926M19.0477 17.7926V17.7906M19.0477 17.7926V17.7906M19.0477 17.7906V17.7886M19.0477 17.7906V17.7886M19.0477 17.7886V17.7866M19.0477 17.7886V17.7866M19.0477 17.7866V17.7847M19.0477 17.7866V17.7847M19.0477 17.7847V17.7827M19.0477 17.7847V17.7827M19.0477 17.7827V17.7807M19.0477 17.7827V17.7807M19.0477 17.7807V17.7787M19.0477 17.7807V17.7787M19.0477 17.7787V17.7768M19.0477 17.7787V17.7768M19.0477 17.7768V17.7748M19.0477 17.7768V17.7748M19.0477 17.7748V17.7728M19.0477 17.7748V17.7728M19.0477 17.7728V17.7708M19.0477 17.7728V17.7708M19.0477 17.7708V17.7689M19.0477 17.7708V17.7689M19.0477 17.7689V17.7669M19.0477 17.7689V17.7669M19.0477 17.7669V17.7649M19.0477 17.7669V17.7649M19.0477 17.7649V17.7629M19.0477 17.7649V17.7629M19.0477 17.7629V17.761M19.0477 17.7629V17.761M19.0477 17.761V17.759M19.0477 17.761V17.759M19.0477 17.759V17.757M19.0477 17.759V17.757M19.0477 17.757V17.755M19.0477 17.757V17.755M19.0477 17.755V17.7531M19.0477 17.755V17.7531M19.0477 17.7531V17.7511M19.0477 17.7531V17.7511M19.0477 17.7511V17.7491M19.0477 17.7511V17.7491M19.0477 17.7491V17.7472M19.0477 17.7491V17.7472M19.0477 17.7472V17.7452M19.0477 17.7472V17.7452M19.0477 17.7452V17.7432M19.0477 17.7452V17.7432M19.0477 17.7432V17.7413M19.0477 17.7432V17.7413M19.0477 17.7413V17.7393M19.0477 17.7413V17.7393M19.0477 17.7393V17.7373M19.0477 17.7393V17.7373M19.0477 17.7373V17.7354M19.0477 17.7373V17.7354M19.0477 17.7354V17.7334M19.0477 17.7354V17.7334M19.0477 17.7334V17.7314M19.0477 17.7334V17.7314M19.0477 17.7314V17.7295M19.0477 17.7314V17.7295M19.0477 17.7295V17.7275M19.0477 17.7295V17.7275M19.0477 17.7275V17.7255M19.0477 17.7275V17.7255M19.0477 17.7255V17.7236M19.0477 17.7255V17.7236M19.0477 17.7236V17.7216M19.0477 17.7236V17.7216M19.0477 17.7216V17.7197M19.0477 17.7216V17.7197M19.0477 17.7197V17.7177M19.0477 17.7197V17.7177M19.0477 17.7177V17.7157M19.0477 17.7177V17.7157M19.0477 17.7157V17.7138M19.0477 17.7157V17.7138M19.0477 17.7138V17.7118M19.0477 17.7138V17.7118M19.0477 17.7118V17.7099M19.0477 17.7118V17.7099M19.0477 17.7099V17.7079M19.0477 17.7099V17.7079M19.0477 17.7079V17.706M19.0477 17.7079V17.706M19.0477 17.706V17.704M19.0477 17.706V17.704M19.0477 17.704V17.702M19.0477 17.704V17.702M19.0477 17.702V17.7001M19.0477 17.702V17.7001M19.0477 17.7001V17.6981M19.0477 17.7001V17.6981M19.0477 17.6981V17.6962M19.0477 17.6981V17.6962M19.0477 17.6962V17.6942M19.0477 17.6962V17.6942M19.0477 17.6942V17.6923M19.0477 17.6942V17.6923M19.0477 17.6923V17.6903M19.0477 17.6923V17.6903M19.0477 17.6903V17.6884M19.0477 17.6903V17.6884M19.0477 17.6884V17.6865M19.0477 17.6884V17.6865M19.0477 17.6865V17.6845M19.0477 17.6865V17.6845M19.0477 17.6845V17.6826M19.0477 17.6845V17.6826M19.0477 17.6826V17.6806M19.0477 17.6826V17.6806M19.0477 17.6806V17.6787M19.0477 17.6806V17.6787M19.0477 17.6787V17.6767M19.0477 17.6787V17.6767M19.0477 17.6767V17.6748M19.0477 17.6767V17.6748M19.0477 17.6748V17.6729M19.0477 17.6748V17.6729M19.0477 17.6729V17.6709M19.0477 17.6729V17.6709M19.0477 17.6709V17.669M19.0477 17.6709V17.669M19.0477 17.669V17.667M19.0477 17.669V17.667M19.0477 17.667V17.6651M19.0477 17.667V17.6651M19.0477 17.6651V17.6632M19.0477 17.6651V17.6632M19.0477 17.6632V17.6612M19.0477 17.6632V17.6612M19.0477 17.6612V17.6593M19.0477 17.6612V17.6593M19.0477 17.6593V17.6574M19.0477 17.6593V17.6574M19.0477 17.6574V17.6554M19.0477 17.6574V17.6554M19.0477 17.6554V17.6535M19.0477 17.6554V17.6535M19.0477 17.6535V17.6516M19.0477 17.6535V17.6516M19.0477 17.6516V17.6497M19.0477 17.6516V17.6497M19.0477 17.6497V17.6477M19.0477 17.6497V17.6477M19.0477 17.6477V17.6458M19.0477 17.6477V17.6458M19.0477 17.6458V17.6439M19.0477 17.6458V17.6439M19.0477 17.6439V17.642M19.0477 17.6439V17.642M19.0477 17.642V17.6401M19.0477 17.642V17.6401M19.0477 17.6401V17.6381M19.0477 17.6401V17.6381M19.0477 17.6381V17.6362M19.0477 17.6381V17.6362M19.0477 17.6362V17.6343M19.0477 17.6362V17.6343M19.0477 17.6343V17.6324M19.0477 17.6343V17.6324M19.0477 17.6324V17.6305M19.0477 17.6324V17.6305M19.0477 17.6305V17.6286M19.0477 17.6305V17.6286M19.0477 17.6286V17.6266M19.0477 17.6286V17.6266M19.0477 17.6266V17.6247M19.0477 17.6266V17.6247M19.0477 17.6247V17.6228M19.0477 17.6247V17.6228M19.0477 17.6228V17.6209M19.0477 17.6228V17.6209M19.0477 17.6209V17.619M19.0477 17.6209V17.619M19.0477 17.619V17.6171M19.0477 17.619V17.6171M19.0477 17.6171V17.6152M19.0477 17.6171V17.6152M19.0477 17.6152V17.6133M19.0477 17.6152V17.6133M19.0477 17.6133V17.6114M19.0477 17.6133V17.6114M19.0477 17.6114V17.6095M19.0477 17.6114V17.6095M19.0477 17.6095V17.6076M19.0477 17.6095V17.6076M19.0477 17.6076V17.6057M19.0477 17.6076V17.6057M19.0477 17.6057V17.6038M19.0477 17.6057V17.6038M19.0477 17.6038V17.6019M19.0477 17.6038V17.6019M19.0477 17.6019V17.6M19.0477 17.6019V17.6M19.0477 17.6V17.5981M19.0477 17.6V17.5981M19.0477 17.5981V17.5962M19.0477 17.5981V17.5962M19.0477 17.5962V17.5943M19.0477 17.5962V17.5943M19.0477 17.5943V17.5925M19.0477 17.5943V17.5925M19.0477 17.5925V17.5906M19.0477 17.5925V17.5906M19.0477 17.5906V17.5887M19.0477 17.5906V17.5887M19.0477 17.5887V17.5868M19.0477 17.5887V17.5868M19.0477 17.5868V17.5849M19.0477 17.5868V17.5849M19.0477 17.5849V17.583M19.0477 17.5849V17.583M19.0477 17.583V17.5812M19.0477 17.583V17.5812M19.0477 17.5812V17.5793M19.0477 17.5812V17.5793M19.0477 17.5793V17.5774M19.0477 17.5793V17.5774M19.0477 17.5774V17.5755M19.0477 17.5774V17.5755M19.0477 17.5755V17.5737M19.0477 17.5755V17.5737M19.0477 17.5737V17.5718M19.0477 17.5737V17.5718M19.0477 17.5718V17.5699M19.0477 17.5718V17.5699M19.0477 17.5699V17.5681M19.0477 17.5699V17.5681M19.0477 17.5681V17.5662M19.0477 17.5681V17.5662M19.0477 17.5662V17.5643M19.0477 17.5662V17.5643M19.0477 17.5643V17.5625M19.0477 17.5643V17.5625M19.0477 17.5625V17.5606M19.0477 17.5625V17.5606M19.0477 17.5606V17.5588M19.0477 17.5606V17.5588M19.0477 17.5588V17.5569M19.0477 17.5588V17.5569M19.0477 17.5569V17.5551M19.0477 17.5569V17.5551M19.0477 17.5551V17.5532M19.0477 17.5551V17.5532M19.0477 17.5532V17.5513M19.0477 17.5532V17.5513M19.0477 17.5513V17.5495M19.0477 17.5513V17.5495M19.0477 17.5495V17.5477M19.0477 17.5495V17.5477M19.0477 17.5477V17.5458M19.0477 17.5477V17.5458M19.0477 17.5458V17.544M19.0477 17.5458V17.544M19.0477 17.544V17.5421M19.0477 17.544V17.5421M19.0477 17.5421V17.5403M19.0477 17.5421V17.5403M19.0477 17.5403V17.5384M19.0477 17.5403V17.5384M19.0477 17.5384V17.5366M19.0477 17.5384V17.5366M19.0477 17.5366V17.5348M19.0477 17.5366V17.5348M19.0477 17.5348V17.5329M19.0477 17.5348V17.5329M19.0477 17.5329V17.5311M19.0477 17.5329V17.5311M19.0477 17.5311V17.5293M19.0477 17.5311V17.5293M19.0477 17.5293V17.5274M19.0477 17.5293V17.5274M19.0477 17.5274V17.5256M19.0477 17.5274V17.5256M19.0477 17.5256V17.5238M19.0477 17.5256V17.5238M19.0477 17.5238V17.522M19.0477 17.5238V17.522M19.0477 17.522V17.5202M19.0477 17.522V17.5202M19.0477 17.5202V17.5183M19.0477 17.5202V17.5183M19.0477 17.5183V17.5165M19.0477 17.5183V17.5165M19.0477 17.5165V17.5147M19.0477 17.5165V17.5147M19.0477 17.5147V17.5129M19.0477 17.5147V17.5129M19.0477 17.5129V17.5111M19.0477 17.5129V17.5111M19.0477 17.5111V17.5093M19.0477 17.5111V17.5093M19.0477 17.5093V17.5075M19.0477 17.5093V17.5075M19.0477 17.5075V17.5057M19.0477 17.5075V17.5057M19.0477 17.5057V17.5039M19.0477 17.5057V17.5039M19.0477 17.5039V17.5021M19.0477 17.5039V17.5021M19.0477 17.5021V17.5003M19.0477 17.5021V17.5003M19.0477 17.5003V17.4985M19.0477 17.5003V17.4985M19.0477 17.4985V17.4967M19.0477 17.4985V17.4967M19.0477 17.4967V17.4949M19.0477 17.4967V17.4949M19.0477 17.4949V17.4931M19.0477 17.4949V17.4931M19.0477 17.4931V17.4913M19.0477 17.4931V17.4913M19.0477 17.4913V17.4895M19.0477 17.4913V17.4895M19.0477 17.4895V17.4878M19.0477 17.4895V17.4878M19.0477 17.4878V17.486M19.0477 17.4878V17.486M19.0477 17.486V17.4842M19.0477 17.486V17.4842M19.0477 17.4842V17.4824M19.0477 17.4842V17.4824M19.0477 17.4824V17.4807M19.0477 17.4824V17.4807M19.0477 17.4807V17.4789M19.0477 17.4807V17.4789M19.0477 17.4789V17.4771M19.0477 17.4789V17.4771M19.0477 17.4771V17.4753M19.0477 17.4771V17.4753M19.0477 17.4753V17.4736M19.0477 17.4753V17.4736M19.0477 17.4736V17.4718M19.0477 17.4736V17.4718M19.0477 17.4718V17.4701M19.0477 17.4718V17.4701M19.0477 17.4701V17.4683M19.0477 17.4701V17.4683M19.0477 17.4683V17.4665M19.0477 17.4683V17.4665M19.0477 17.4665V17.4648M19.0477 17.4665V17.4648M19.0477 17.4648V17.463M19.0477 17.4648V17.463M19.0477 17.463V17.4613M19.0477 17.463V17.4613M19.0477 17.4613V17.4595M19.0477 17.4613V17.4595M19.0477 17.4595V17.4578M19.0477 17.4595V17.4578M19.0477 17.4578V17.4561M19.0477 17.4578V17.4561M19.0477 17.4561V17.4543M19.0477 17.4561V17.4543M19.0477 17.4543V17.4526M19.0477 17.4543V17.4526M19.0477 17.4526V17.4509M19.0477 17.4526V17.4509M19.0477 17.4509V17.4491M19.0477 17.4509V17.4491M19.0477 17.4491V17.4474M19.0477 17.4491V17.4474M19.0477 17.4474V17.4457M19.0477 17.4474V17.4457M19.0477 17.4457V17.4439M19.0477 17.4457V17.4439M19.0477 17.4439V17.4422M19.0477 17.4439V17.4422M19.0477 17.4422V17.4405M19.0477 17.4422V17.4405M19.0477 17.4405V17.4388M19.0477 17.4405V17.4388M19.0477 17.4388V17.4371M19.0477 17.4388V17.4371M19.0477 17.4371V17.4354M19.0477 17.4371V17.4354M19.0477 17.4354V17.4336M19.0477 17.4354V17.4336M19.0477 17.4336V17.4319M19.0477 17.4336V17.4319M19.0477 17.4319V17.4302M19.0477 17.4319V17.4302M19.0477 17.4302V17.4285M19.0477 17.4302V17.4285M19.0477 17.4285V17.4268M19.0477 17.4285V17.4268M19.0477 17.4268V17.4251M19.0477 17.4268V17.4251M19.0477 17.4251V17.4234M19.0477 17.4251V17.4234M19.0477 17.4234V17.4218M19.0477 17.4234V17.4218M19.0477 17.4218V17.4201M19.0477 17.4218V17.4201M19.0477 17.4201V17.4184M19.0477 17.4201V17.4184M19.0477 17.4184V17.4167M19.0477 17.4184V17.4167M19.0477 17.4167V17.415M19.0477 17.4167V17.415M19.0477 17.415V17.4133M19.0477 17.415V17.4133M19.0477 17.4133V17.4117M19.0477 17.4133V17.4117M19.0477 17.4117V17.41M19.0477 17.4117V17.41M19.0477 17.41V17.4083M19.0477 17.41V17.4083M19.0477 17.4083V17.4066M19.0477 17.4083V17.4066M19.0477 17.4066V17.405M19.0477 17.4066V17.405M19.0477 17.405V17.4033M19.0477 17.405V17.4033M19.0477 17.4033V17.4017M19.0477 17.4033V17.4017M19.0477 17.4017V17.4M19.0477 17.4017V17.4M19.0477 17.4V17.3984M19.0477 17.4V17.3984M19.0477 17.3984V17.3967M19.0477 17.3984V17.3967M19.0477 17.3967V17.3951M19.0477 17.3967V17.3951M19.0477 17.3951V17.3934M19.0477 17.3951V17.3934M19.0477 17.3934V17.3918M19.0477 17.3934V17.3918M19.0477 17.3918V17.3901M19.0477 17.3918V17.3901M19.0477 17.3901V17.3885M19.0477 17.3901V17.3885M19.0477 17.3885V17.3869M19.0477 17.3885V17.3869M19.0477 17.3869V17.3852M19.0477 17.3869V17.3852M19.0477 17.3852V17.3836M19.0477 17.3852V17.3836M19.0477 17.3836V17.382M19.0477 17.3836V17.382M19.0477 17.382V17.3804M19.0477 17.382V17.3804M19.0477 17.3804V17.3787M19.0477 17.3804V17.3787M19.0477 17.3787V17.3771M19.0477 17.3787V17.3771M19.0477 17.3771V17.3755M19.0477 17.3771V17.3755M19.0477 17.3755V17.3739M19.0477 17.3755V17.3739M19.0477 17.3739V17.3723M19.0477 17.3739V17.3723M19.0477 17.3723V17.3707M19.0477 17.3723V17.3707M19.0477 17.3707V17.3691M19.0477 17.3707V17.3691M19.0477 17.3691V17.3675M19.0477 17.3691V17.3675M19.0477 17.3675V17.3659M19.0477 17.3675V17.3659M19.0477 17.3659V17.3643M19.0477 17.3659V17.3643M19.0477 17.3643V17.3627M19.0477 17.3643V17.3627M19.0477 17.3627V17.3611M19.0477 17.3627V17.3611M19.0477 17.3611V17.3595M19.0477 17.3611V17.3595M19.0477 17.3595V17.358M19.0477 17.3595V17.358M19.0477 17.358V17.3564M19.0477 17.358V17.3564M19.0477 17.3564V17.3548M19.0477 17.3564V17.3548M19.0477 17.3548V17.3532M19.0477 17.3548V17.3532M19.0477 17.3532V17.3517M19.0477 17.3532V17.3517M19.0477 17.3517V17.3501M19.0477 17.3517V17.3501M19.0477 17.3501V17.3485M19.0477 17.3501V17.3485M19.0477 17.3485V17.347M19.0477 17.3485V17.347M19.0477 17.347V17.3454M19.0477 17.347V17.3454M19.0477 17.3454V17.3439M19.0477 17.3454V17.3439M19.0477 17.3439V17.3423M19.0477 17.3439V17.3423M19.0477 17.3423V17.3408M19.0477 17.3423V17.3408M19.0477 17.3408V17.3392M19.0477 17.3408V17.3392M19.0477 17.3392V17.3377M19.0477 17.3392V17.3377M19.0477 17.3377V17.3362M19.0477 17.3377V17.3362M19.0477 17.3362V17.3346M19.0477 17.3362V17.3346M19.0477 17.3346V17.3331M19.0477 17.3346V17.3331M19.0477 17.3331V17.3316M19.0477 17.3331V17.3316M19.0477 17.3316V17.33M19.0477 17.3316V17.33M19.0477 17.33V17.3285M19.0477 17.33V17.3285M19.0477 17.3285V17.327M19.0477 17.3285V17.327M19.0477 17.327V17.3255M19.0477 17.327V17.3255M19.0477 17.3255V17.324M19.0477 17.3255V17.324M19.0477 17.324V17.3225M19.0477 17.324V17.3225M19.0477 17.3225V17.321M19.0477 17.3225V17.321M19.0477 17.321V17.3195M19.0477 17.321V17.3195M19.0477 17.3195V17.318M19.0477 17.3195V17.318M19.0477 17.318V17.3165M19.0477 17.318V17.3165M19.0477 17.3165V17.315M19.0477 17.3165V17.315M19.0477 17.315V17.3135M19.0477 17.315V17.3135M19.0477 17.3135V17.312M19.0477 17.3135V17.312M19.0477 17.312V17.3106M19.0477 17.312V17.3106M19.0477 17.3106V17.3091M19.0477 17.3106V17.3091M19.0477 17.3091V17.3076M19.0477 17.3091V17.3076M19.0477 17.3076V17.3061M19.0477 17.3076V17.3061M19.0477 17.3061V17.3047M19.0477 17.3061V17.3047M19.0477 17.3047V17.3032M19.0477 17.3047V17.3032M19.0477 17.3032V17.3018M19.0477 17.3032V17.3018M19.0477 17.3018V17.3003M19.0477 17.3018V17.3003M19.0477 17.3003V17.2988M19.0477 17.3003V17.2988M19.0477 17.2988V17.2974M19.0477 17.2988V17.2974M19.0477 17.2974V17.296M19.0477 17.2974V17.296M19.0477 17.296V17.2945M19.0477 17.296V17.2945M19.0477 17.2945V17.2931M19.0477 17.2945V17.2931M19.0477 17.2931V17.2916M19.0477 17.2931V17.2916M19.0477 17.2916V17.2902M19.0477 17.2916V17.2902M19.0477 17.2902V17.2888M19.0477 17.2902V17.2888M19.0477 17.2888V17.2874M19.0477 17.2888V17.2874M19.0477 17.2874V17.2859M19.0477 17.2874V17.2859M19.0477 17.2859V17.2845M19.0477 17.2859V17.2845M19.0477 17.2845V17.2831M19.0477 17.2845V17.2831M19.0477 17.2831V17.2817M19.0477 17.2831V17.2817M19.0477 17.2817V17.2803M19.0477 17.2817V17.2803M19.0477 17.2803V17.2789M19.0477 17.2803V17.2789M19.0477 17.2789V17.2775M19.0477 17.2789V17.2775M19.0477 17.2775V17.2761V17.2775ZM25.5912 12.7939C25.5913 12.7938 25.5916 12.7941 25.5922 12.7946L25.5912 12.7939ZM13.0871 22.0069L13.094 22.0048L12.9488 21.5263L13.0871 22.0069Z" stroke="#E0E0E0"/>
</g>
<g id="Vector_2">
<mask id="path-3-inside-1_7_5731" fill="white">
<path d="M3 9.5C3 9.22386 3.22386 9 3.5 9C3.77614 9 4 9.22386 4 9.5V10.5C4 10.7761 3.77614 11 3.5 11C3.22386 11 3 10.7761 3 10.5V9.5Z"/>
<path d="M3 12.5C3 12.2239 3.22386 12 3.5 12C3.77614 12 4 12.2239 4 12.5V13.5C4 13.7761 3.77614 14 3.5 14C3.22386 14 3 13.7761 3 13.5V12.5Z"/>
<path d="M3 17.5C3 17.2239 3.22386 17 3.5 17C3.77614 17 4 17.2239 4 17.5V18.5C4 18.7761 3.77614 19 3.5 19C3.22386 19 3 18.7761 3 18.5V17.5Z"/>
<path d="M3 20.5C3 20.2239 3.22386 20 3.5 20C3.77614 20 4 20.2239 4 20.5V21.5C4 21.7761 3.77614 22 3.5 22C3.22386 22 3 21.7761 3 21.5V20.5Z"/>
<path d="M9 9.5C9 9.22386 9.22386 9 9.5 9C9.77614 9 10 9.22386 10 9.5V10.5C10 10.7761 9.77614 11 9.5 11C9.22386 11 9 10.7761 9 10.5V9.5Z"/>
<path d="M9 12.5C9 12.2239 9.22386 12 9.5 12C9.77614 12 10 12.2239 10 12.5V13.5C10 13.7761 9.77614 14 9.5 14C9.22386 14 9 13.7761 9 13.5V12.5Z"/>
<path d="M9 17.5C9 17.2239 9.22386 17 9.5 17C9.77614 17 10 17.2239 10 17.5V18.5C10 18.7761 9.77614 19 9.5 19C9.22386 19 9 18.7761 9 18.5V17.5Z"/>
<path d="M9 20.5C9 20.2239 9.22386 20 9.5 20C9.77614 20 10 20.2239 10 20.5V21.5C10 21.7761 9.77614 22 9.5 22C9.22386 22 9 21.7761 9 21.5V20.5Z"/>
</mask>
<path d="M3 9.5C3 9.22386 3.22386 9 3.5 9C3.77614 9 4 9.22386 4 9.5V10.5C4 10.7761 3.77614 11 3.5 11C3.22386 11 3 10.7761 3 10.5V9.5Z" fill="#E0E0E0"/>
<path d="M3 12.5C3 12.2239 3.22386 12 3.5 12C3.77614 12 4 12.2239 4 12.5V13.5C4 13.7761 3.77614 14 3.5 14C3.22386 14 3 13.7761 3 13.5V12.5Z" fill="#E0E0E0"/>
<path d="M3 17.5C3 17.2239 3.22386 17 3.5 17C3.77614 17 4 17.2239 4 17.5V18.5C4 18.7761 3.77614 19 3.5 19C3.22386 19 3 18.7761 3 18.5V17.5Z" fill="#E0E0E0"/>
<path d="M3 20.5C3 20.2239 3.22386 20 3.5 20C3.77614 20 4 20.2239 4 20.5V21.5C4 21.7761 3.77614 22 3.5 22C3.22386 22 3 21.7761 3 21.5V20.5Z" fill="#E0E0E0"/>
<path d="M9 9.5C9 9.22386 9.22386 9 9.5 9C9.77614 9 10 9.22386 10 9.5V10.5C10 10.7761 9.77614 11 9.5 11C9.22386 11 9 10.7761 9 10.5V9.5Z" fill="#E0E0E0"/>
<path d="M9 12.5C9 12.2239 9.22386 12 9.5 12C9.77614 12 10 12.2239 10 12.5V13.5C10 13.7761 9.77614 14 9.5 14C9.22386 14 9 13.7761 9 13.5V12.5Z" fill="#E0E0E0"/>
<path d="M9 17.5C9 17.2239 9.22386 17 9.5 17C9.77614 17 10 17.2239 10 17.5V18.5C10 18.7761 9.77614 19 9.5 19C9.22386 19 9 18.7761 9 18.5V17.5Z" fill="#E0E0E0"/>
<path d="M9 20.5C9 20.2239 9.22386 20 9.5 20C9.77614 20 10 20.2239 10 20.5V21.5C10 21.7761 9.77614 22 9.5 22C9.22386 22 9 21.7761 9 21.5V20.5Z" fill="#E0E0E0"/>
<path d="M3 9.5V10.5H5V9.5H3ZM4 10.5V9.5H2V10.5H4ZM3.5 10C3.77614 10 4 10.2239 4 10.5H2C2 11.3284 2.67157 12 3.5 12V10ZM3 10.5C3 10.2239 3.22386 10 3.5 10V12C4.32843 12 5 11.3284 5 10.5H3ZM3.5 10C3.22386 10 3 9.77614 3 9.5H5C5 8.67157 4.32843 8 3.5 8V10ZM3.5 8C2.67157 8 2 8.67157 2 9.5H4C4 9.77614 3.77614 10 3.5 10V8ZM3 12.5V13.5H5V12.5H3ZM4 13.5V12.5H2V13.5H4ZM3.5 13C3.77614 13 4 13.2239 4 13.5H2C2 14.3284 2.67157 15 3.5 15V13ZM3 13.5C3 13.2239 3.22386 13 3.5 13V15C4.32843 15 5 14.3284 5 13.5H3ZM3.5 13C3.22386 13 3 12.7761 3 12.5H5C5 11.6716 4.32843 11 3.5 11V13ZM3.5 11C2.67157 11 2 11.6716 2 12.5H4C4 12.7761 3.77614 13 3.5 13V11ZM3 17.5V18.5H5V17.5H3ZM4 18.5V17.5H2V18.5H4ZM3.5 18C3.77614 18 4 18.2239 4 18.5H2C2 19.3284 2.67157 20 3.5 20V18ZM3 18.5C3 18.2239 3.22386 18 3.5 18V20C4.32843 20 5 19.3284 5 18.5H3ZM3.5 18C3.22386 18 3 17.7761 3 17.5H5C5 16.6716 4.32843 16 3.5 16V18ZM3.5 16C2.67157 16 2 16.6716 2 17.5H4C4 17.7761 3.77614 18 3.5 18V16ZM3 20.5V21.5H5V20.5H3ZM4 21.5V20.5H2V21.5H4ZM3.5 21C3.77614 21 4 21.2239 4 21.5H2C2 22.3284 2.67157 23 3.5 23V21ZM3 21.5C3 21.2239 3.22386 21 3.5 21V23C4.32843 23 5 22.3284 5 21.5H3ZM3.5 21C3.22386 21 3 20.7761 3 20.5H5C5 19.6716 4.32843 19 3.5 19V21ZM3.5 19C2.67157 19 2 19.6716 2 20.5H4C4 20.7761 3.77614 21 3.5 21V19ZM9 9.5V10.5H11V9.5H9ZM10 10.5V9.5H8V10.5H10ZM9.5 10C9.77614 10 10 10.2239 10 10.5H8C8 11.3284 8.67157 12 9.5 12V10ZM9 10.5C9 10.2239 9.22386 10 9.5 10V12C10.3284 12 11 11.3284 11 10.5H9ZM9.5 10C9.22386 10 9 9.77614 9 9.5H11C11 8.67157 10.3284 8 9.5 8V10ZM9.5 8C8.67157 8 8 8.67157 8 9.5H10C10 9.77614 9.77614 10 9.5 10V8ZM9 12.5V13.5H11V12.5H9ZM10 13.5V12.5H8V13.5H10ZM9.5 13C9.77614 13 10 13.2239 10 13.5H8C8 14.3284 8.67157 15 9.5 15V13ZM9 13.5C9 13.2239 9.22386 13 9.5 13V15C10.3284 15 11 14.3284 11 13.5H9ZM9.5 13C9.22386 13 9 12.7761 9 12.5H11C11 11.6716 10.3284 11 9.5 11V13ZM9.5 11C8.67157 11 8 11.6716 8 12.5H10C10 12.7761 9.77614 13 9.5 13V11ZM9 17.5V18.5H11V17.5H9ZM10 18.5V17.5H8V18.5H10ZM9.5 18C9.77614 18 10 18.2239 10 18.5H8C8 19.3284 8.67157 20 9.5 20V18ZM9 18.5C9 18.2239 9.22386 18 9.5 18V20C10.3284 20 11 19.3284 11 18.5H9ZM9.5 18C9.22386 18 9 17.7761 9 17.5H11C11 16.6716 10.3284 16 9.5 16V18ZM9.5 16C8.67157 16 8 16.6716 8 17.5H10C10 17.7761 9.77614 18 9.5 18V16ZM9 20.5V21.5H11V20.5H9ZM10 21.5V20.5H8V21.5H10ZM9.5 21C9.77614 21 10 21.2239 10 21.5H8C8 22.3284 8.67157 23 9.5 23V21ZM9 21.5C9 21.2239 9.22386 21 9.5 21V23C10.3284 23 11 22.3284 11 21.5H9ZM9.5 21C9.22386 21 9 20.7761 9 20.5H11C11 19.6716 10.3284 19 9.5 19V21ZM9.5 19C8.67157 19 8 19.6716 8 20.5H10C10 20.7761 9.77614 21 9.5 21V19Z" fill="#E0E0E0" mask="url(#path-3-inside-1_7_5731)"/>
</g>
<path id="Rectangle 524" d="M6.5 9.6C6.5 7.89509 6.50117 6.70662 6.57676 5.78136C6.65093 4.87361 6.78919 4.35208 6.99047 3.95704C7.4219 3.11031 8.11031 2.4219 8.95704 1.99047C9.35208 1.78919 9.87361 1.65093 10.7814 1.57676C11.7066 1.50117 12.8951 1.5 14.6 1.5H28.4C30.1049 1.5 31.2934 1.50117 32.2186 1.57676C33.1264 1.65093 33.6479 1.78919 34.043 1.99047C34.8897 2.4219 35.5781 3.11031 36.0095 3.95704C36.2108 4.35208 36.3491 4.87361 36.4232 5.78136C36.4988 6.70662 36.5 7.89509 36.5 9.6V22.4C36.5 24.1049 36.4988 25.2934 36.4232 26.2186C36.3491 27.1264 36.2108 27.6479 36.0095 28.043C35.5781 28.8897 34.8897 29.5781 34.043 30.0095C33.6479 30.2108 33.1264 30.3491 32.2186 30.4232C31.2934 30.4988 30.1049 30.5 28.4 30.5H14.6C12.8951 30.5 11.7066 30.4988 10.7814 30.4232C9.87361 30.3491 9.35208 30.2108 8.95704 30.0095C8.11031 29.5781 7.4219 28.8897 6.99047 28.043C6.78919 27.6479 6.65093 27.1264 6.57676 26.2186C6.50117 25.2934 6.5 24.1049 6.5 22.4V9.6Z" stroke="#E0E0E0" stroke-width="3"/>
</g>
</svg>
