<svg width="24" height="24" viewBox="0 0 24 24" fill="none" xmlns="http://www.w3.org/2000/svg">
<g id="&#208;&#152;&#208;&#186;&#208;&#190;&#208;&#189;&#208;&#186;&#208;&#176; / &#208;&#158;&#208;&#186;">
<g id="Icon">
<path d="M12.0039 3.99805C7.58563 3.99805 4.00391 7.57977 4.00391 11.998C4.00391 16.4163 7.58563 19.998 12.0039 19.998C16.4222 19.998 20.0039 16.4163 20.0039 11.998C20.0039 7.57977 16.4222 3.99805 12.0039 3.99805ZM2.00391 11.998C2.00391 6.4752 6.48106 1.99805 12.0039 1.99805C17.5268 1.99805 22.0039 6.4752 22.0039 11.998C22.0039 17.5209 17.5268 21.998 12.0039 21.998C6.48106 21.998 2.00391 17.5209 2.00391 11.998ZM16.6683 8.75064C17.0811 9.11756 17.1182 9.74963 16.7513 10.1624L11.418 16.1624C11.2282 16.3759 10.9562 16.498 10.6706 16.498C10.3849 16.498 10.1129 16.3759 9.92316 16.1624L7.2565 13.1624C6.88958 12.7496 6.92676 12.1176 7.33954 11.7506C7.75233 11.3837 8.3844 11.4209 8.75132 11.8337L10.6706 13.9928L15.2565 8.83368C15.6234 8.4209 16.2555 8.38372 16.6683 8.75064Z" fill="#6FCF97"/>
</g>
</g>
</svg>
